<?xml version="1.0" encoding="UTF-8"?>
<!DOCTYPE svg PUBLIC "-//W3C//DTD SVG 1.1//EN" "http://www.w3.org/Graphics/SVG/1.1/DTD/svg11.dtd">
<svg xmlns="http://www.w3.org/2000/svg" version="1.1" width="113px" height="113px" style="shape-rendering:geometricPrecision; text-rendering:geometricPrecision; image-rendering:optimizeQuality; fill-rule:evenodd; clip-rule:evenodd" xmlns:xlink="http://www.w3.org/1999/xlink">
<g><path style="opacity:0.922" fill="#676D21" d="M 29.5,-0.5 C 32.8333,-0.5 36.1667,-0.5 39.5,-0.5C 40.3235,1.45464 40.4901,3.45464 40,5.5C 23.4586,22.2831 21.4586,40.6165 34,60.5C 38.1081,65.2105 42.7748,69.2105 48,72.5C 48.6667,74.1667 48.6667,75.8333 48,77.5C 31.7865,82.0996 18.1199,77.7663 7,64.5C 3.92666,59.6867 1.42666,54.6867 -0.5,49.5C -0.5,42.8333 -0.5,36.1667 -0.5,29.5C 4.49136,14.5086 14.4914,4.50864 29.5,-0.5 Z"/></g>
<g><path style="opacity:0.942" fill="#676D21" d="M 63.5,-0.5 C 69.1667,-0.5 74.8333,-0.5 80.5,-0.5C 97.0933,3.76052 107.76,14.0939 112.5,30.5C 112.5,33.1667 112.5,35.8333 112.5,38.5C 110.84,40.2484 108.84,40.7484 106.5,40C 92.0499,25.7438 75.3833,22.4104 56.5,30C 49.3089,34.3577 43.6422,40.1911 39.5,47.5C 36.7185,48.952 34.2185,48.6187 32,46.5C 30.0741,22.3183 40.5741,6.65159 63.5,-0.5 Z"/></g>
<g><path style="opacity:0.937" fill="#676D21" d="M 112.5,67.5 C 112.5,70.8333 112.5,74.1667 112.5,77.5C 108.692,95.9741 97.6919,107.641 79.5,112.5C 77.8333,112.5 76.1667,112.5 74.5,112.5C 71.7498,110.992 70.9164,108.659 72,105.5C 88.2624,87.9552 89.7624,69.2885 76.5,49.5C 77.1183,47.3364 76.1183,45.6697 73.5,44.5C 72.8933,44.6236 72.56,44.9569 72.5,45.5C 69.274,43.2979 66.1073,40.9646 63,38.5C 62.3131,36.0797 62.8131,33.913 64.5,32C 90.7388,30.4468 106.739,42.2802 112.5,67.5 Z"/></g>
<g><path style="opacity:0.914" fill="#676D21" d="M 76.5,49.5 C 74.8333,48.5 73.5,47.1667 72.5,45.5C 72.56,44.9569 72.8933,44.6236 73.5,44.5C 76.1183,45.6697 77.1183,47.3364 76.5,49.5 Z"/></g>
<g><path style="opacity:0.94" fill="#676D21" d="M 46.5,112.5 C 41.1667,112.5 35.8333,112.5 30.5,112.5C 14.8947,107.894 4.56137,97.894 -0.5,82.5C -0.5,79.1667 -0.5,75.8333 -0.5,72.5C 1.40239,71.4891 3.40239,71.3224 5.5,72C 18.5259,85.0893 33.8592,88.756 51.5,83C 60.396,78.7711 67.396,72.4377 72.5,64C 78.0832,62.0565 80.7499,64.2231 80.5,70.5C 79.076,92.7497 67.7426,106.75 46.5,112.5 Z"/></g>
</svg>
