<?xml version="1.0" encoding="UTF-8"?>
<svg version="1.1" xmlns="http://www.w3.org/2000/svg" width="288" height="288">
<path d="M0 0 C7.72707516 4.52817928 15.53084827 8.90446856 23.37011719 13.23388672 C69.23165796 38.60893853 69.23165796 38.60893853 75.43261719 59.48388672 C77.17229308 71.57485269 76.61395504 84.11963006 76.63574219 96.30419922 C76.63856956 97.37963863 76.64139694 98.45507805 76.64431 99.56310654 C76.65920118 105.24389635 76.6684967 110.92466139 76.67285156 116.60546875 C76.67835135 122.4399265 76.70244021 128.2741527 76.73082352 134.10853767 C76.74951553 138.62979794 76.75465878 143.1510028 76.75618744 147.67229843 C76.75919475 149.82269444 76.76715748 151.97308992 76.78037262 154.12344742 C76.88179226 171.87860668 75.91711492 187.4010795 63.30761719 201.23388672 C55.50963675 208.37773194 45.35994532 213.13325816 36.14892578 218.20751953 C28.80955035 222.25379919 21.52226877 226.38962571 14.24511719 230.54638672 C13.63362823 230.89558167 13.02213928 231.24477661 12.39212036 231.60455322 C5.65587268 235.45457176 -1.06172388 239.3290506 -7.69238281 243.35888672 C-13.05404541 246.60705673 -18.47160291 249.73539514 -23.94238281 252.79638672 C-24.66828613 253.20550293 -25.39418945 253.61461914 -26.14208984 254.03613281 C-35.93882016 259.47527748 -43.89383175 262.6003582 -55.25488281 262.73388672 C-56.558125 262.75966797 -57.86136719 262.78544922 -59.20410156 262.81201172 C-69.17778855 262.39150453 -77.37328363 258.3542002 -85.81738281 253.35888672 C-87.32824463 252.48502319 -87.32824463 252.48502319 -88.86962891 251.59350586 C-94.92628187 248.07831952 -100.94491629 244.49775795 -106.93237305 240.8659668 C-118.02239797 234.15170147 -129.33954172 227.80243664 -140.68945312 221.53979492 C-179.47377486 200.134447 -179.47377486 200.134447 -185.56738281 179.48388672 C-186.53254888 173.30730759 -186.72111799 167.27984637 -186.72851562 161.03564453 C-186.73348053 160.01987335 -186.73844543 159.00410217 -186.74356079 157.95755005 C-186.75809307 154.61736356 -186.76496923 151.27722455 -186.77050781 147.93701172 C-186.77333519 146.7898745 -186.77616257 145.64273727 -186.77907562 144.46083832 C-186.79403163 138.39104484 -186.80328393 132.32127491 -186.80761719 126.25146484 C-186.81309856 120.00655343 -186.83713013 113.76186038 -186.86558914 107.51701736 C-186.8842823 102.69207137 -186.88942466 97.86717732 -186.89095306 93.04219818 C-186.89396468 90.74108435 -186.90194234 88.4399711 -186.91513824 86.13889313 C-187.01734655 66.9475417 -186.14939678 51.64840319 -172.36425781 37.00732422 C-162.70943593 28.29640951 -150.34554414 22.663515 -138.96850586 16.57568359 C-131.83155285 12.74796948 -124.79920669 8.77478525 -117.81738281 4.67138672 C-116.84921631 4.10274902 -115.8810498 3.53411133 -114.88354492 2.94824219 C-113.89620361 2.3683252 -112.9088623 1.7884082 -111.89160156 1.19091797 C-105.43908226 -2.59846131 -98.96676969 -6.35238723 -92.47766113 -10.07870483 C-91.26388219 -10.77658563 -90.05104119 -11.47610075 -88.8392334 -12.17739868 C-53.79575634 -32.45195808 -32.28150457 -18.97338349 0 0 Z M-103.56738281 47.48388672 C-111.3458028 57.63538399 -114.09263414 66.74530853 -114.00488281 79.42138672 C-114.02486328 80.44167969 -114.04484375 81.46197266 -114.06542969 82.51318359 C-114.05929127 92.13208699 -111.35084868 99.77259889 -105.56738281 107.48388672 C-104.88675781 108.43263672 -104.20613281 109.38138672 -103.50488281 110.35888672 C-91.90499315 123.65042696 -73.20297241 129.27601762 -57.11181641 135.02661133 C-48.86574193 138.01653352 -40.09063991 141.35710336 -34.56738281 148.48388672 C-32.06805892 153.9585962 -31.68140747 158.97362325 -33.69238281 164.67138672 C-37.14392726 169.84870339 -41.7581124 171.78862954 -47.56738281 173.48388672 C-65.0542611 176.02944495 -84.219195 174.30947045 -100.37597656 166.75732422 C-103.31274507 165.33386178 -103.31274507 165.33386178 -105.6171875 165.56738281 C-107.79480296 166.35902014 -107.79480296 166.35902014 -108.86352539 168.81298828 C-109.22599365 169.82329102 -109.58846191 170.83359375 -109.96191406 171.87451172 C-110.35958984 172.97666016 -110.75726563 174.07880859 -111.16699219 175.21435547 C-111.56724609 176.37580078 -111.9675 177.53724609 -112.37988281 178.73388672 C-112.79947266 179.87986328 -113.2190625 181.02583984 -113.65136719 182.20654297 C-116.4213618 189.23094935 -116.4213618 189.23094935 -115.56738281 196.48388672 C-113.22167978 197.98826426 -111.24077798 199.01303344 -108.69238281 200.04638672 C-107.98782959 200.34303223 -107.28327637 200.63967773 -106.55737305 200.9453125 C-80.97946517 211.1720074 -45.53377716 213.18308742 -19.94238281 202.35888672 C-8.35257428 197.03777966 -0.02303388 188.32381906 5.24511719 176.73388672 C9.74940493 164.40636237 9.55532693 145.53389714 4.43261719 133.48388672 C-3.24637247 118.39664101 -16.94428792 110.64657236 -32.06738281 104.54638672 C-33.63081421 103.90189575 -33.63081421 103.90189575 -35.22583008 103.24438477 C-40.06117284 101.26220146 -44.90902695 99.3355235 -49.81347656 97.53076172 C-68.24732975 90.73973619 -68.24732975 90.73973619 -72.76660156 83.58544922 C-74.60678089 78.75610056 -74.29305936 73.27898134 -72.37988281 68.54638672 C-66.95697878 62.37549593 -59.41322591 62.2036364 -51.70605469 61.60205078 C-40.75905016 60.99721628 -30.90273683 63.06410046 -20.56738281 66.48388672 C-19.61863281 66.79068359 -18.66988281 67.09748047 -17.69238281 67.41357422 C-15.64465646 68.08548443 -13.60479791 68.78132979 -11.56738281 69.48388672 C-8.58922997 63.08242349 -6.10059307 56.59953175 -3.81738281 49.92138672 C-3.5015625 49.00808594 -3.18574219 48.09478516 -2.86035156 47.15380859 C-2.09249909 44.93169008 -1.32824257 42.70840713 -0.56738281 40.48388672 C-3.52686122 37.27239545 -6.78515843 35.97270803 -10.81738281 34.48388672 C-11.44128906 34.23638672 -12.06519531 33.98888672 -12.70800781 33.73388672 C-24.48333987 29.3181372 -36.51032728 27.96068914 -48.97412109 28.0378418 C-51.06739895 28.04638678 -53.15796269 28.01737439 -55.25097656 27.98583984 C-73.89240519 27.88916028 -90.65843606 33.47537039 -103.56738281 47.48388672 Z " fill="#676D21" transform="translate(197.5673828125,24.51611328125)"/>
<path d="M0 0 C0.495 2.475 0.495 2.475 1 5 C0.01 4.67 -0.98 4.34 -2 4 C-4.14255793 4.38932856 -4.14255793 4.38932856 -6 5 C-7.29243536 9.1196377 -8.26252625 12.66831683 -8 17 C-7.34 17.33 -6.68 17.66 -6 18 C-5.375 21.0625 -5.375 21.0625 -5 24 C-4.29875 24.0825 -3.5975 24.165 -2.875 24.25 C0.65281148 25.17029865 3.00099554 26.95812462 6 29 C7.32974739 29.34736258 8.66349066 29.67963821 10 30 C11.44843636 30.64255957 12.88572147 31.31068604 14.3125 32 C19.18233504 34.21429073 23.64671291 35 29 35 C29.66 35.99 30.32 36.98 31 38 C33.53751331 39.76216202 35.80255408 40.9371763 38.75 41.875 C44.26382866 43.783633 51.26628071 46.53256141 54 52 C56.02463255 52.65213292 56.02463255 52.65213292 58 53 C58 53.66 58 54.32 58 55 C59.0828125 55.2475 59.0828125 55.2475 60.1875 55.5 C64.29077794 57.6884149 65.85206692 60.9812865 68 65 C68.51949219 65.95390625 69.03898437 66.9078125 69.57421875 67.890625 C73.56255468 76.58847541 73.20959119 86.96080774 73.3125 96.375 C73.33014404 97.30183594 73.34778809 98.22867188 73.3659668 99.18359375 C73.36003041 105.18473815 72.37772609 109.49400297 70 115 C69.6280068 116.3075593 69.27303407 117.62011351 68.9375 118.9375 C68.4734375 120.4534375 68.4734375 120.4534375 68 122 C67.01 122.495 67.01 122.495 66 123 C64.86649466 125.01669827 64.86649466 125.01669827 64 127 C63.34 127 62.68 127 62 127 C61.67 127.99 61.34 128.98 61 130 C58.4375 131.1875 58.4375 131.1875 56 132 C56 132.66 56 133.32 56 134 C53.953125 135.40234375 53.953125 135.40234375 51.25 136.9375 C47.50207281 139.07049083 47.50207281 139.07049083 44.046875 141.62890625 C41.37316255 143.41988539 39.18528702 143.59606867 36 144 C34.80890625 144.24878906 33.6178125 144.49757812 32.390625 144.75390625 C15.14329648 148.22531888 -2.41990133 147.70455647 -19.875 146.125 C-20.74229736 146.04677002 -21.60959473 145.96854004 -22.50317383 145.88793945 C-26.50881255 145.46678114 -29.42604084 144.93424036 -33 143 C-35.81301211 141.78356233 -38.54761894 140.84353745 -41.5 140 C-44.44073659 139.15978954 -47.18895315 138.19256533 -50 137 C-50 136.01 -50 135.02 -50 134 C-48.783125 134.4125 -47.56625 134.825 -46.3125 135.25 C-45.47976562 135.52328125 -44.64703125 135.7965625 -43.7890625 136.078125 C-41.92338509 136.69479148 -40.06386665 137.33040001 -38.2109375 137.984375 C-12.65040204 146.57060138 20.64382382 148.45161234 45.60473633 136.96386719 C56.94834667 131.26502907 64.61278634 122.39965977 68.63671875 110.39453125 C70.25543549 104.77301801 70.45950558 99.44617175 70.375 93.625 C70.36484863 92.61421387 70.35469727 91.60342773 70.34423828 90.56201172 C70.05365373 76.58016412 66.84405468 67.06554025 57.25 56.8125 C49.84275388 49.81825279 40.848764 45.83350034 31.5 42.0625 C30.4577124 41.63283936 29.4154248 41.20317871 28.34155273 40.76049805 C23.50620997 38.77831474 18.65835586 36.85163678 13.75390625 35.046875 C4.38525417 31.59606754 -3.26496219 28.30898179 -10.0625 20.6875 C-11.54244731 16.44498439 -11.65275428 12.43447198 -11 8 C-8.26948298 2.72727748 -6.18052235 0 0 0 Z " fill="#676D21" transform="translate(134,88)"/>
<path d="M0 0 C11.38891871 3.30113586 19.90737458 12.66992462 25.5703125 22.8125 C32.063033 36.76257376 30.1761883 53.75582882 30.203125 68.8203125 C30.20736607 70.43347162 30.20736607 70.43347162 30.21169281 72.07921982 C30.22658399 77.76000963 30.23587951 83.44077467 30.24023438 89.12158203 C30.24573416 94.95603978 30.26982302 100.79026598 30.29820633 106.62465096 C30.31689834 111.14591122 30.32204159 115.66711608 30.32357025 120.18841171 C30.32657756 122.33880772 30.33454029 124.4892032 30.34775543 126.6395607 C30.44917507 144.39471996 29.48449773 159.91719278 16.875 173.75 C11.85385229 178.34994768 5.88127477 181.63414975 0 185 C-0.76006348 185.43876465 -1.52012695 185.8775293 -2.30322266 186.32958984 C-4.73797188 187.73029077 -7.17968155 189.11784217 -9.625 190.5 C-10.40721924 190.94577393 -11.18943848 191.39154785 -11.99536133 191.85083008 C-13.09980591 192.46607544 -13.09980591 192.46607544 -14.2265625 193.09375 C-14.88221191 193.46177734 -15.53786133 193.82980469 -16.21337891 194.20898438 C-18 195 -18 195 -21 195 C-20.505 193.02 -20.505 193.02 -20 191 C-19.236875 190.896875 -18.47375 190.79375 -17.6875 190.6875 C-14.74085352 189.93370671 -13.92018817 189.26931329 -12 187 C-11.46375 186.484375 -10.9275 185.96875 -10.375 185.4375 C-8.89066489 184.027224 -8.89066489 184.027224 -8 182 C-6.8553125 182.3403125 -6.8553125 182.3403125 -5.6875 182.6875 C-4.3571875 182.8421875 -4.3571875 182.8421875 -3 183 C-1.33333333 181.66666667 -1.33333333 181.66666667 0 180 C0.99 179.67 1.98 179.34 3 179 C4.21869929 176.49552484 4.21869929 176.49552484 5 174 C5.495 174.99 5.495 174.99 6 176 C6.99 176 7.98 176 9 176 C9.33 175.34 9.66 174.68 10 174 C11.485 173.566875 11.485 173.566875 13 173.125 C14.485 172.568125 14.485 172.568125 16 172 C16.96877057 169.96756452 16.96877057 169.96756452 17 168 C17.66 168 18.32 168 19 168 C19 167.01 19 166.02 19 165 C19.66 165 20.32 165 21 165 C21.69419563 163.34461042 22.35103764 161.67363977 23 160 C23.2501439 159.38854881 23.5002878 158.77709763 23.75801182 158.14711761 C26.15818108 151.77202495 26.43261351 145.96204939 26.40405273 139.19726562 C26.41434761 137.47596687 26.41434761 137.47596687 26.42485046 135.71989441 C26.44306532 131.94855169 26.43928877 128.17762702 26.43359375 124.40625 C26.43815764 121.77266302 26.44346383 119.13907723 26.44947815 116.50549316 C26.4594824 110.99466999 26.45623332 105.48396436 26.44604492 99.97314453 C26.43456126 93.62175228 26.44865264 87.27078218 26.4754414 80.91944551 C26.50034122 74.78394954 26.50276459 68.64864715 26.49632454 62.5131073 C26.49617147 59.91366371 26.50220363 57.31421193 26.51461601 54.71479797 C26.52954167 51.0771264 26.51883628 47.44037765 26.50170898 43.80273438 C26.51621094 42.20337288 26.51621094 42.20337288 26.53100586 40.57170105 C26.45134439 32.4659319 24.47790317 26.71685476 20 20 C20 19.01 20 18.02 20 17 C18.68 16.34 17.36 15.68 16 15 C16 14.34 16 13.68 16 13 C15.21625 12.71125 14.4325 12.4225 13.625 12.125 C11 11 11 11 9 9 C8.319375 8.835 7.63875 8.67 6.9375 8.5 C6.298125 8.335 5.65875 8.17 5 8 C4.67 7.34 4.34 6.68 4 6 C4.33 5.34 4.66 4.68 5 4 C4.360625 3.896875 3.72125 3.79375 3.0625 3.6875 C2.0415625 3.3471875 2.0415625 3.3471875 1 3 C0.67 2.01 0.34 1.02 0 0 Z " fill="#676D21" transform="translate(244,52)"/>
<path d="M0 0 C0 0.66 0 1.32 0 2 C-0.928125 2.433125 -1.85625 2.86625 -2.8125 3.3125 C-5.55321188 4.76346511 -6.92926204 5.83513759 -9 8 C-11.67643887 9.58913558 -12.8180056 10 -16 10 C-16.33 10.66 -16.66 11.32 -17 12 C-19.5625 12.625 -19.5625 12.625 -22 13 C-22 13.66 -22 14.32 -22 15 C-26.32265835 19.12242622 -31.3224864 21.80193973 -36.7890625 24.078125 C-43.34047393 26.80980892 -49.50243966 30.35234766 -55.6796875 33.828125 C-58 35 -58 35 -60 35 C-60 35.66 -60 36.32 -60 37 C-61.65 37 -63.3 37 -65 37 C-65.20625 37.59554687 -65.4125 38.19109375 -65.625 38.8046875 C-67.53975931 41.86177481 -69.74941224 42.63254264 -73 44.125 C-77.34440016 46.0678902 -77.34440016 46.0678902 -81 49 C-82.65204456 49.70211894 -84.31923769 50.36971413 -86 51 C-86.99 51.495 -86.99 51.495 -88 52 C-88.33 52.99 -88.66 53.98 -89 55 C-90.99541868 55.68025637 -92.99617991 56.34490497 -95 57 C-98.58567193 59.4901208 -98.58567193 59.4901208 -101 63 C-101.66 63 -102.32 63 -103 63 C-103.33 64.32 -103.66 65.64 -104 67 C-104.66 67 -105.32 67 -106 67 C-106.37125 68.1446875 -106.37125 68.1446875 -106.75 69.3125 C-107.44121497 71.35158418 -108.1585038 73.38430522 -108.97943211 75.37471199 C-111.69714503 82.1464803 -112.57416504 87.88094567 -112.50170898 95.14013672 C-112.50711197 96.19375397 -112.51251495 97.24737122 -112.51808167 98.33291626 C-112.53048892 101.78213447 -112.51412833 105.23050468 -112.49609375 108.6796875 C-112.49624895 111.09905033 -112.49774134 113.5184134 -112.50050354 115.93777466 C-112.50188405 120.99622659 -112.48938926 126.05439381 -112.46655273 131.11279297 C-112.43820026 137.56719784 -112.44090213 144.02112902 -112.45364285 150.47556877 C-112.46062955 155.46871927 -112.45277612 160.4617621 -112.44038582 165.45489883 C-112.43589822 167.83332022 -112.43551073 170.21175327 -112.43945122 172.59017563 C-112.56896875 190.02493165 -112.56896875 190.02493165 -109 207 C-109.99 206.67 -110.98 206.34 -112 206 C-115.37115746 198.32125246 -115.15138037 189.78361421 -115.16113281 181.55175781 C-115.16609772 180.53598663 -115.17106262 179.52021545 -115.17617798 178.47366333 C-115.19071026 175.13347684 -115.19758641 171.79333783 -115.203125 168.453125 C-115.20595238 167.30598778 -115.20877975 166.15885056 -115.21169281 164.9769516 C-115.22664882 158.90715812 -115.23590112 152.8373882 -115.24023438 146.76757812 C-115.24571575 140.52266671 -115.26974731 134.27797366 -115.29820633 128.03313065 C-115.31689949 123.20818465 -115.32204185 118.3832906 -115.32357025 113.55831146 C-115.32658187 111.25719763 -115.33455953 108.95608438 -115.34775543 106.65500641 C-115.44996373 87.46365498 -114.58201397 72.16451647 -100.796875 57.5234375 C-91.14205312 48.81252279 -78.77816133 43.17962828 -67.40112305 37.09179688 C-59.2668621 32.72920329 -51.28303379 28.14711894 -43.32714844 23.46875 C-35.16713317 18.67156918 -26.96828086 13.9463695 -18.75 9.25 C-18.1377356 8.89948578 -17.52547119 8.54897156 -16.89465332 8.18783569 C-15.15442169 7.19171789 -13.4131686 6.19738522 -11.671875 5.203125 C-10.17285645 4.34702637 -10.17285645 4.34702637 -8.64355469 3.47363281 C-2.41219351 0 -2.41219351 0 0 0 Z " fill="#676D21" transform="translate(126,4)"/>
<path d="M0 0 C1.65 0 3.3 0 5 0 C5 0.66 5 1.32 5 2 C6.65 2.33 8.3 2.66 10 3 C10 3.66 10 4.32 10 5 C10.886875 5.268125 11.77375 5.53625 12.6875 5.8125 C16 7 16 7 18.6875 8.625 C20.98136704 10.2555377 20.98136704 10.2555377 24 10 C24 10.66 24 11.32 24 12 C25.32 12.33 26.64 12.66 28 13 C28 13.66 28 14.32 28 15 C29.32 15 30.64 15 32 15 C32 15.66 32 16.32 32 17 C32.86238281 17.25652344 33.72476563 17.51304687 34.61328125 17.77734375 C38.11387168 19.04110938 41.01023593 20.63359063 44.1875 22.5625 C48.43173628 25.13063318 48.43173628 25.13063318 53 27 C53.5775 27.66 54.155 28.32 54.75 29 C57.715282 31.63580622 60.11820531 31.70140041 64 32 C64 32.66 64 33.32 64 34 C64.66 34 65.32 34 66 34 C66 34.99 66 35.98 66 37 C66.639375 37.2475 67.27875 37.495 67.9375 37.75 C71.99988351 39.40811572 75.99724906 41.2035584 80 43 C80 43.66 80 44.32 80 45 C81.27875 45.309375 82.5575 45.61875 83.875 45.9375 C86.10101675 46.47605244 87.94739999 46.9737 90 48 C90 48.66 90 49.32 90 50 C99.24 50 108.48 50 118 50 C118 50.66 118 51.32 118 52 C113.40384088 52.88360268 108.99120604 53.19501031 104.3125 53.25 C102.35763672 53.28867187 102.35763672 53.28867187 100.36328125 53.328125 C90.38959426 52.90761781 82.19409918 48.87031348 73.75 43.875 C72.74275879 43.29242432 71.73551758 42.70984863 70.69775391 42.10961914 C64.64110094 38.5944328 58.62246652 35.01387123 52.63500977 31.38208008 C39.96970766 23.7140902 27.02262999 16.49213031 14.03588867 9.38500977 C4.26951394 4.01054556 4.26951394 4.01054556 0 1 C0 0.67 0 0.34 0 0 Z " fill="#676D21" transform="translate(38,234)"/>
<path d="M0 0 C0 0.66 0 1.32 0 2 C-0.928125 2.433125 -1.85625 2.86625 -2.8125 3.3125 C-5.55321188 4.76346511 -6.92926204 5.83513759 -9 8 C-11.67643887 9.58913558 -12.8180056 10 -16 10 C-16.33 10.66 -16.66 11.32 -17 12 C-19.5625 12.625 -19.5625 12.625 -22 13 C-22 13.66 -22 14.32 -22 15 C-26.32265835 19.12242622 -31.3224864 21.80193973 -36.7890625 24.078125 C-43.34047393 26.80980892 -49.50243966 30.35234766 -55.6796875 33.828125 C-58 35 -58 35 -60 35 C-60 35.66 -60 36.32 -60 37 C-61.65 37 -63.3 37 -65 37 C-65.20625 37.59554687 -65.4125 38.19109375 -65.625 38.8046875 C-67.53975931 41.86177481 -69.74941224 42.63254264 -73 44.125 C-77.34440016 46.0678902 -77.34440016 46.0678902 -81 49 C-82.65204456 49.70211894 -84.31923769 50.36971413 -86 51 C-86.99 51.495 -86.99 51.495 -88 52 C-88.33 52.99 -88.66 53.98 -89 55 C-93.455 55.495 -93.455 55.495 -98 56 C-95.23172179 53.02481131 -92.57590591 50.9928386 -89.01953125 49.0390625 C-88.03331787 48.4925 -87.04710449 47.9459375 -86.03100586 47.3828125 C-84.96889893 46.80273438 -83.90679199 46.22265625 -82.8125 45.625 C-80.53900697 44.36728787 -78.26557105 43.10947251 -75.9921875 41.8515625 C-74.81751726 41.20450847 -73.64271247 40.55769864 -72.46777344 39.91113281 C-67.1134212 36.9602831 -61.77367549 33.98356824 -56.4375 31 C-55.41043945 30.42620605 -54.38337891 29.85241211 -53.32519531 29.26123047 C-46.02439646 25.16898276 -38.78266698 20.98265076 -31.5625 16.75 C-24.28208849 12.48350629 -16.98834797 8.24709784 -9.625 4.125 C-8.87549072 3.70186523 -8.12598145 3.27873047 -7.35375977 2.84277344 C-2.23858211 0 -2.23858211 0 0 0 Z " fill="#676D21" transform="translate(126,4)"/>
<path d="M0 0 C6.59697423 1.69153185 12.84479043 5.17128744 17 10.625 C19.35026872 16.20688821 19.97941552 21.37104256 17.8125 27.1875 C14.23106237 32.74490322 9.35463302 35.46404605 3 37 C-12.71599228 39.26230207 -35.16239936 39.22506709 -49 30 C-49 29.34 -49 28.68 -49 28 C-46.70763814 28.47582968 -44.41612791 28.95576385 -42.125 29.4375 C-40.84882812 29.70433594 -39.57265625 29.97117188 -38.2578125 30.24609375 C-35 31 -35 31 -33 32 C-33 32.66 -33 33.32 -33 34 C-28.42847075 34.02485982 -23.85698153 34.04293526 -19.28540039 34.05493164 C-17.73265904 34.05993684 -16.17992234 34.06674301 -14.62719727 34.07543945 C-12.38556768 34.08767307 -10.14400082 34.09326657 -7.90234375 34.09765625 C-7.21663803 34.10281754 -6.53093231 34.10797882 -5.82444763 34.11329651 C-1.43608179 34.1137986 2.68401845 33.70910669 7 33 C7 32.34 7 31.68 7 31 C7.928125 30.79375 8.85625 30.5875 9.8125 30.375 C13.19635703 29.25825501 13.19635703 29.25825501 14.875 26.1875 C16.56431676 21.40110253 16.11562753 17.88087042 15 13 C14.34 13 13.68 13 13 13 C12.938125 12.38125 12.87625 11.7625 12.8125 11.125 C12.19124685 8.7498001 12.19124685 8.7498001 9.625 7.9375 C8.75875 7.628125 7.8925 7.31875 7 7 C5.97980427 6.0206121 4.97850195 5.02104551 4 4 C1.90010348 2.82425289 1.90010348 2.82425289 0 2 C0 1.34 0 0.68 0 0 Z " fill="#676D21" transform="translate(147,162)"/>
<path d="M0 0 C8.86594721 5.19854775 17.82442963 10.21550369 26.8371582 15.15429688 C26.5071582 16.14429688 26.1771582 17.13429687 25.8371582 18.15429688 C21.88318449 17.0120378 19.69606086 16.01319953 16.8371582 13.15429688 C14.54448642 12.01828834 12.21969915 11.09832253 9.8371582 10.15429688 C9.8371582 9.16429687 9.8371582 8.17429688 9.8371582 7.15429688 C8.6202832 7.09242187 7.4034082 7.03054687 6.1496582 6.96679688 C1.56426925 6.41366429 0.04856634 4.44403204 -3.1628418 1.15429688 C-6.08780996 -0.11766176 -9.10293458 -0.96037735 -12.1628418 -1.84570312 C-13.83648157 -2.49466548 -15.50745222 -3.1515075 -17.1628418 -3.84570312 C-17.1628418 -4.83570312 -17.1628418 -5.82570313 -17.1628418 -6.84570312 C-17.8640918 -7.09320312 -18.5653418 -7.34070313 -19.2878418 -7.59570312 C-22.53370112 -9.00694631 -25.22156046 -10.8848489 -28.1628418 -12.84570312 C-29.80903293 -13.5614384 -31.47012234 -14.24827273 -33.1628418 -14.84570312 C-33.1628418 -15.50570313 -33.1628418 -16.16570313 -33.1628418 -16.84570312 C-35.6378418 -17.34070313 -35.6378418 -17.34070313 -38.1628418 -17.84570312 C-38.1628418 -18.50570313 -38.1628418 -19.16570313 -38.1628418 -19.84570312 C-44.97188096 -20.56787395 -51.75582674 -20.97000354 -58.6003418 -21.03320312 C-59.91905273 -21.04738281 -61.23776367 -21.0615625 -62.59643555 -21.07617188 C-65.94597433 -20.85971756 -68.17175845 -20.30378421 -71.1628418 -18.84570312 C-71.1628418 -19.83570313 -71.1628418 -20.82570313 -71.1628418 -21.84570312 C-44.16900301 -30.45454901 -22.35898731 -13.12465188 0 0 Z " fill="#676D21" transform="translate(198.162841796875,24.845703125)"/>
<path d="M0 0 C2.475 0.495 2.475 0.495 5 1 C2.92821316 2.58598855 0.84456108 4.10284484 -1.33203125 5.54296875 C-11.43257901 12.23955238 -19.37415621 20.89682332 -22.60522461 32.8605957 C-23.45615696 37.47204913 -23.36921084 42.13775533 -23.375 46.8125 C-23.39949219 47.84181641 -23.42398438 48.87113281 -23.44921875 49.93164062 C-23.4862653 59.69340599 -20.68526245 67.15825869 -15 75 C-14.67 75.66 -14.34 76.32 -14 77 C-18.56531573 76.5335272 -18.56531573 76.5335272 -20.51171875 74.14453125 C-20.89972656 73.37496094 -21.28773437 72.60539062 -21.6875 71.8125 C-22.09871094 70.9978125 -22.50992188 70.183125 -22.93359375 69.34375 C-29.2540812 55.4525688 -28.33014893 39.80902253 -23.125 25.8125 C-21.55548892 21.97656806 -19.65915695 19.19098833 -17 16 C-16.71125 14.96875 -16.4225 13.9375 -16.125 12.875 C-14.59824251 8.97328641 -12.76139164 8.66369246 -9 7 C-7.91222987 6.13502616 -6.84921771 5.23804848 -5.8125 4.3125 C-3 2 -3 2 0 2 C0 1.34 0 0.68 0 0 Z " fill="#676D21" transform="translate(108,57)"/>
<path d="M0 0 C1.67419438 0.9873454 3.34051852 1.98812105 5 3 C8.30536133 3.83913198 11.63634884 4.44483428 15 5 C15.36552803 6.41377782 15.71695495 7.83120576 16.0625 9.25 C16.35833984 10.43335937 16.35833984 10.43335937 16.66015625 11.640625 C17.01497267 14.10394822 16.76877544 15.65604132 16 18 C15.34 18 14.68 18 14 18 C14.04125 18.763125 14.0825 19.52625 14.125 20.3125 C14 23 14 23 12 26 C11.34 26 10.68 26 10 26 C10 27.98 10 29.96 10 32 C9.34 32 8.68 32 8 32 C8.04125 33.093125 8.0825 34.18625 8.125 35.3125 C8 39 8 39 6 42 C2.92078868 42.25660094 0.78863007 42.39431504 -2 41 C-2 40.34 -2 39.68 -2 39 C-3.65 39 -5.3 39 -7 39 C-7.495 37.515 -7.495 37.515 -8 36 C-4.37 36.99 -0.74 37.98 3 39 C4.48389202 35.1059076 5.9622734 31.20987408 7.4375 27.3125 C8.06881836 25.65831055 8.06881836 25.65831055 8.71289062 23.97070312 C9.11572266 22.90400391 9.51855469 21.83730469 9.93359375 20.73828125 C10.4913147 19.26935425 10.4913147 19.26935425 11.06030273 17.77075195 C11.93752473 15.18421196 12.5345167 12.68779068 13 10 C4.47791473 6.19159559 -3.98504028 3.38709732 -13 1 C-8.53581641 -1.62182211 -4.92462302 -1.1062559 0 0 Z " fill="#676D21" transform="translate(183,54)"/>
<path d="M0 0 C0.33 0 0.66 0 1 0 C0.58232165 10.85963721 -5.01850359 19.98815657 -12.4140625 27.703125 C-16.58894111 31.41132533 -21.16013581 34.19477094 -26.02978516 36.90234375 C-28.27565341 38.15357345 -30.50239237 39.43612114 -32.73046875 40.71875 C-34.36105571 41.64745658 -35.9925606 42.57455342 -37.625 43.5 C-38.40738037 43.94601563 -39.18976074 44.39203125 -39.99584961 44.8515625 C-40.73198486 45.26148438 -41.46812012 45.67140625 -42.2265625 46.09375 C-42.88221191 46.46177734 -43.53786133 46.82980469 -44.21337891 47.20898438 C-46 48 -46 48 -49 48 C-48.67 46.68 -48.34 45.36 -48 44 C-46.8553125 43.8453125 -46.8553125 43.8453125 -45.6875 43.6875 C-42.74085352 42.93370671 -41.92018817 42.26931329 -40 40 C-39.46375 39.484375 -38.9275 38.96875 -38.375 38.4375 C-36.89066489 37.027224 -36.89066489 37.027224 -36 35 C-35.236875 35.226875 -34.47375 35.45375 -33.6875 35.6875 C-32.800625 35.790625 -31.91375 35.89375 -31 36 C-29.33333333 34.66666667 -29.33333333 34.66666667 -28 33 C-26.515 32.505 -26.515 32.505 -25 32 C-23.78130071 29.49552484 -23.78130071 29.49552484 -23 27 C-22.67 27.66 -22.34 28.32 -22 29 C-21.01 29 -20.02 29 -19 29 C-18.67 28.34 -18.34 27.68 -18 27 C-17.01 26.71125 -16.02 26.4225 -15 26.125 C-13.515 25.568125 -13.515 25.568125 -12 25 C-11.03122943 22.96756452 -11.03122943 22.96756452 -11 21 C-10.34 21 -9.68 21 -9 21 C-9 20.01 -9 19.02 -9 18 C-8.34 18 -7.68 18 -7 18 C-5.41906815 14.07722051 -3.89057144 10.13596242 -2.375 6.1875 C-1.70597656 4.44533203 -1.70597656 4.44533203 -1.0234375 2.66796875 C-0.68570313 1.78753906 -0.34796875 0.90710938 0 0 Z " fill="#676D21" transform="translate(272,199)"/>
<path d="M0 0 C5.06998019 0.65419099 9.41990777 2.8546409 14 5 C14 5.66 14 6.32 14 7 C15.918125 7.4640625 15.918125 7.4640625 17.875 7.9375 C20.10101675 8.47605244 21.94739999 8.9737 24 10 C24 10.66 24 11.32 24 12 C33.24 12 42.48 12 52 12 C52 12.66 52 13.32 52 14 C32.00044105 17.84487645 18.4476764 12.22389421 1.56958008 2.07568359 C1.05161865 1.72070801 0.53365723 1.36573242 0 1 C0 0.67 0 0.34 0 0 Z " fill="#676D21" transform="translate(104,272)"/>
<path d="M0 0 C2.59340969 0.03700994 5.18540374 0.04101473 7.77905273 0.04052734 C9.43857029 0.0503436 11.09807824 0.06199405 12.75756836 0.07568359 C13.52734512 0.07790924 14.29712189 0.08013489 15.09022522 0.08242798 C18.86401558 0.14944353 21.8009036 0.2996228 25.00366211 2.41162109 C23.91537109 2.42620361 22.82708008 2.44078613 21.70581055 2.45581055 C17.61272651 2.51441122 13.52015769 2.59163167 9.42749023 2.67407227 C7.6665085 2.7070344 5.90542838 2.73515258 4.14428711 2.75805664 C-5.05481981 2.88088563 -13.70851869 3.02817075 -22.57739258 5.77954102 C-25.14443336 6.45031903 -27.35485003 6.52183082 -29.99633789 6.41162109 C-29.99633789 5.75162109 -29.99633789 5.09162109 -29.99633789 4.41162109 C-19.87139475 0.36439549 -10.7667594 -0.15929301 0 0 Z " fill="#676D21" transform="translate(142.996337890625,50.58837890625)"/>
<path d="M0 0 C2.475 0.495 2.475 0.495 5 1 C2.92821316 2.58598855 0.84456108 4.10284484 -1.33203125 5.54296875 C-12.28412495 12.80412063 -19.96563368 22.03498027 -23 35 C-23.33 35 -23.66 35 -24 35 C-24.72641371 28.31699385 -22.42741688 23.68120313 -19 18 C-18.34 17.34 -17.68 16.68 -17 16 C-16.7525 15.030625 -16.505 14.06125 -16.25 13.0625 C-14.60395254 9.02968372 -12.91048115 8.72963589 -9 7 C-7.91222987 6.13502616 -6.84921771 5.23804848 -5.8125 4.3125 C-3 2 -3 2 0 2 C0 1.34 0 0.68 0 0 Z " fill="#676D21" transform="translate(108,57)"/>
<path d="M0 0 C1.32 0.33 2.64 0.66 4 1 C3.195625 1.61875 2.39125 2.2375 1.5625 2.875 C-1.03874519 4.74164041 -1.03874519 4.74164041 -2 7 C-2.66 7 -3.32 7 -4 7 C-4.33 8.32 -4.66 9.64 -5 11 C-5.66 11 -6.32 11 -7 11 C-7.2475 11.763125 -7.495 12.52625 -7.75 13.3125 C-8.46563541 15.42362447 -9.20739054 17.52718357 -10.0234375 19.6015625 C-12.14113275 25.05350134 -13.120424 29.09922401 -13 35 C-14.5 37.4375 -14.5 37.4375 -16 39 C-16.68324957 25.33500866 -12.68936609 14.14809723 -3.6875 3.9375 C-2.46660181 2.6173051 -1.24036535 1.30192194 0 0 Z " fill="#676D21" transform="translate(27,60)"/>
<path d="M0 0 C0.495 1.485 0.495 1.485 1 3 C0.34 3 -0.32 3 -1 3 C-1 3.66 -1 4.32 -1 5 C-3.046875 6.40234375 -3.046875 6.40234375 -5.75 7.9375 C-8.33245176 9.41372608 -10.78475068 10.83384952 -13.140625 12.65234375 C-15.66463078 14.48171769 -17.9380593 14.61725741 -21 15 C-21.63711914 15.17072021 -22.27423828 15.34144043 -22.93066406 15.51733398 C-25.06945684 16.01620059 -26.91698105 16.1142653 -29.109375 16.09765625 C-29.86347656 16.09443359 -30.61757812 16.09121094 -31.39453125 16.08789062 C-32.17183594 16.07951172 -32.94914063 16.07113281 -33.75 16.0625 C-34.54277344 16.05798828 -35.33554688 16.05347656 -36.15234375 16.04882812 C-38.10159508 16.03708565 -40.05080738 16.01915146 -42 16 C-42 15.67 -42 15.34 -42 15 C-40.741875 14.86464844 -39.48375 14.72929687 -38.1875 14.58984375 C-29.42877546 13.53260811 -21.2333053 12.22189549 -13.125 8.625 C-12.49078125 8.34519287 -11.8565625 8.06538574 -11.203125 7.77709961 C-6.86809119 5.72179589 -3.55122709 3.16026631 0 0 Z " fill="#676D21" transform="translate(191,217)"/>
<path d="M0 0 C0.33 0 0.66 0 1 0 C1.08803772 3.49983803 1.14073608 6.99938638 1.1875 10.5 C1.22520508 11.97339844 1.22520508 11.97339844 1.26367188 13.4765625 C1.32665926 19.77530059 0.53942625 24.23843742 -2 30 C-2.37287738 31.30730744 -2.7278328 32.61989302 -3.0625 33.9375 C-3.371875 34.948125 -3.68125 35.95875 -4 37 C-4.99 37.495 -4.99 37.495 -6 38 C-7.13350534 40.01669827 -7.13350534 40.01669827 -8 42 C-8.66 42 -9.32 42 -10 42 C-10.33 42.99 -10.66 43.98 -11 45 C-12.485 45.495 -12.485 45.495 -14 46 C-13.39897689 42.71971723 -12.30202957 40.8659952 -10.1875 38.3125 C-5.99119509 32.90572253 -2.88526041 26.86076819 -2 20 C-1.34 20 -0.68 20 0 20 C0 13.4 0 6.8 0 0 Z " fill="#676D21" transform="translate(206,173)"/>
<path d="M0 0 C0.33 0 0.66 0 1 0 C0.5663498 11.27490516 -5.42024754 19.94027666 -12.75390625 28.13671875 C-15.23033631 30.19107899 -16.83609159 30.67193217 -20 31 C-19.375 29.125 -19.375 29.125 -18 27 C-16.989375 26.67 -15.97875 26.34 -14.9375 26 C-13.968125 25.67 -12.99875 25.34 -12 25 C-11.03122943 22.96756452 -11.03122943 22.96756452 -11 21 C-10.34 21 -9.68 21 -9 21 C-9 20.01 -9 19.02 -9 18 C-8.34 18 -7.68 18 -7 18 C-5.41906815 14.07722051 -3.89057144 10.13596242 -2.375 6.1875 C-1.92898438 5.02605469 -1.48296875 3.86460937 -1.0234375 2.66796875 C-0.68570312 1.78753906 -0.34796875 0.90710938 0 0 Z " fill="#676D21" transform="translate(272,199)"/>
<path d="M0 0 C-1.28067123 3.8420137 -2.53024049 4.14661613 -6.0234375 6.06640625 C-7.044375 6.63423828 -8.0653125 7.20207031 -9.1171875 7.78710938 C-10.19226563 8.37298828 -11.26734375 8.95886719 -12.375 9.5625 C-14.48741266 10.72968453 -16.59941051 11.89762022 -18.7109375 13.06640625 C-19.65243652 13.58146729 -20.59393555 14.09652832 -21.56396484 14.62719727 C-24.1357528 16.03651299 -24.1357528 16.03651299 -27 18 C-28.32 18 -29.64 18 -31 18 C-30.505 16.515 -30.505 16.515 -30 15 C-28.33669648 14.23280125 -26.66625089 13.47674493 -24.9609375 12.80810547 C-21.81926043 11.51341534 -18.92577735 9.77682267 -16 8.0625 C-14.25 7.04882812 -14.25 7.04882812 -12.5 6.03515625 C-10.68619971 4.98341822 -8.87641267 3.92651818 -7.07421875 2.85498047 C-2.21660337 0 -2.21660337 0 0 0 Z " fill="#676D21" transform="translate(222,247)"/>
<path d="M0 0 C6.59697423 1.69153185 12.84479043 5.17128744 17 10.625 C18.94202821 15.23731699 19.0968732 18.96259346 19 24 C18.67 24 18.34 24 18 24 C18 22.02 18 20.04 18 18 C17.01 17.67 16.02 17.34 15 17 C15 15.68 15 14.36 15 13 C14.34 13 13.68 13 13 13 C12.938125 12.38125 12.87625 11.7625 12.8125 11.125 C12.19124685 8.7498001 12.19124685 8.7498001 9.625 7.9375 C8.75875 7.628125 7.8925 7.31875 7 7 C5.97980427 6.0206121 4.97850195 5.02104551 4 4 C1.90010348 2.82425289 1.90010348 2.82425289 0 2 C0 1.34 0 0.68 0 0 Z " fill="#676D21" transform="translate(147,162)"/>
<path d="M0 0 C-2.37648638 1.48323628 -3.64232539 2.02994748 -6.47265625 1.79296875 C-7.32730469 1.59316406 -8.18195313 1.39335938 -9.0625 1.1875 C-9.91972656 0.99542969 -10.77695313 0.80335937 -11.66015625 0.60546875 C-13.45954674 0.13985018 -15.2367229 -0.41224097 -17 -1 C-19.41510358 -1.09637737 -21.83297896 -1.12981478 -24.25 -1.125 C-25.53390625 -1.12757812 -26.8178125 -1.13015625 -28.140625 -1.1328125 C-31.86641645 -1.004597 -35.32879946 -0.59918558 -39 0 C-38.67 -0.99 -38.34 -1.98 -38 -3 C-24.9904385 -4.57471415 -12.50308158 -4.13303528 0 0 Z " fill="#676D21" transform="translate(174,89)"/>
<path d="M0 0 C-1.72698391 5.18095174 -7.19062171 6.75703982 -11.8125 9.25 C-12.82376953 9.8171875 -13.83503906 10.384375 -14.87695312 10.96875 C-16.3397168 11.76539063 -16.3397168 11.76539063 -17.83203125 12.578125 C-18.72639893 13.06700195 -19.6207666 13.55587891 -20.54223633 14.05957031 C-23.2467986 15.09443411 -24.34418249 15.03155061 -27 14 C-26.01 13.67 -25.02 13.34 -24 13 C-23.67 12.34 -23.34 11.68 -23 11 C-19.9375 10.375 -19.9375 10.375 -17 10 C-17 9.34 -17 8.68 -17 8 C-2.77075099 0 -2.77075099 0 0 0 Z " fill="#676D21" transform="translate(188,267)"/>
<path d="M0 0 C0.61875 0.804375 1.2375 1.60875 1.875 2.4375 C3.74164041 5.03874519 3.74164041 5.03874519 6 6 C6.33 6.99 6.66 7.98 7 9 C11.00840547 13.63471882 15.8505173 16.73529528 21 20 C19.265625 20.67578125 19.265625 20.67578125 17 21 C10.05715668 17.38502331 4.05509285 10.59643169 0 4 C0 2.68 0 1.36 0 0 Z " fill="#676D21" transform="translate(17,212)"/>
<path d="M0 0 C0.33 0 0.66 0 1 0 C1.03738281 1.07636719 1.07476562 2.15273437 1.11328125 3.26171875 C1.50601124 12.52652781 2.51902569 21.02792308 5 30 C4.01 29.67 3.02 29.34 2 29 C-1.66366959 20.65497482 -1.43076376 10.94468283 -1 2 C-0.67 1.34 -0.34 0.68 0 0 Z " fill="#676D21" transform="translate(12,181)"/>
<path d="M0 0 C1.65 0.33 3.3 0.66 5 1 C4.01 1.66 3.02 2.32 2 3 C0.94835111 5.09977959 0.94835111 5.09977959 0.17578125 7.5703125 C-0.13037109 8.46621094 -0.43652344 9.36210937 -0.75195312 10.28515625 C-1.06068359 11.22230469 -1.36941406 12.15945312 -1.6875 13.125 C-2.16799805 14.54232422 -2.16799805 14.54232422 -2.65820312 15.98828125 C-3.44808915 18.32257129 -4.22822969 20.65967065 -5 23 C-5.66 23 -6.32 23 -7 23 C-6.67 19.37 -6.34 15.74 -6 12 C-5.34 12 -4.68 12 -4 12 C-3.896875 11.319375 -3.79375 10.63875 -3.6875 9.9375 C-2.85274981 6.37084011 -1.50527246 3.33777806 0 0 Z " fill="#676D21" transform="translate(89,188)"/>
<path d="M0 0 C0 0.66 0 1.32 0 2 C-0.86951294 2.029729 -0.86951294 2.029729 -1.7565918 2.06005859 C-4.40065937 2.15572601 -7.0439817 2.26523453 -9.6875 2.375 C-10.59951172 2.4059375 -11.51152344 2.436875 -12.45117188 2.46875 C-17.01203631 2.66776954 -20.86190275 2.85690122 -25 5 C-25 4.01 -25 3.02 -25 2 C-16.30843441 -0.7719047 -9.03037323 -1.2089048 0 0 Z " fill="#676D21" transform="translate(152,1)"/>
<path d="M0 0 C4.7871428 0.57665391 8.25128824 2.64082996 12.3125 5.0625 C12.95767578 5.43955078 13.60285156 5.81660156 14.26757812 6.20507812 C15.84878152 7.13037493 17.4249146 8.06432681 19 9 C15.78334288 10.60832856 12.46602018 10.75408423 9 10 C6.8125 7.125 6.8125 7.125 5 4 C2.39562767 2.58809436 2.39562767 2.58809436 0 2 C0 1.34 0 0.68 0 0 Z " fill="#676D21" transform="translate(225,42)"/>
<path d="M0 0 C6.90135547 3.28635975 9.07193612 9.2187185 12 16 C13.1577506 19.47325181 13.06866652 22.36067448 13 26 C10.89653394 22.03613508 9.53630131 17.89646703 8.09765625 13.65625 C7.11672837 10.96596238 7.11672837 10.96596238 5.37109375 8.84375 C4 7 4 7 4 4 C2.68 3.34 1.36 2.68 0 2 C0 1.34 0 0.68 0 0 Z " fill="#676D21" transform="translate(260,65)"/>
<path d="M0 0 C7.1178153 2.03807293 14.06707281 4.40344742 21 7 C20.34 7.66 19.68 8.32 19 9 C12.03482157 8.13331619 5.8292095 5.84197899 0 2 C0 1.34 0 0.68 0 0 Z " fill="#676D21" transform="translate(121,152)"/>
<path d="M0 0 C2.00720923 0.28674418 4.0085944 0.61866701 6 1 C4.9375 2.4375 4.9375 2.4375 3 4 C1.3603125 4.2165625 1.3603125 4.2165625 -0.3125 4.4375 C-4.68856727 5.10503569 -6.52721284 6.3742341 -10 9 C-10.66 8.67 -11.32 8.34 -12 8 C-8.55388468 4.14845935 -5.98135916 2.3585525 -1 1 C-0.67 0.67 -0.34 0.34 0 0 Z " fill="#676D21" transform="translate(187,264)"/>
<path d="M0 0 C3.73506949 7.47013899 2.69516484 13.00850863 1 21 C0.67 21 0.34 21 0 21 C0 14.07 0 7.14 0 0 Z " fill="#676D21" transform="translate(271,87)"/>
<path d="M0 0 C1.32 0 2.64 0 4 0 C4.33 1.65 4.66 3.3 5 5 C4.01 4.67 3.02 4.34 2 4 C-0.10231241 4.00469206 -0.10231241 4.00469206 -2 5 C-3.29660434 7.49034386 -3.29660434 7.49034386 -4 10 C-4.66 8.68 -5.32 7.36 -6 6 C-4 4 -2 2 0 0 Z " fill="#676D21" transform="translate(130,88)"/>
<path d="M0 0 C0.33 0.66 0.66 1.32 1 2 C1.99 2.33 2.98 2.66 4 3 C4 3.99 4 4.98 4 6 C0.04 7.98 0.04 7.98 -4 10 C-4.33 8.68 -4.66 7.36 -5 6 C-4.01 5.67 -3.02 5.34 -2 5 C-0.78130071 2.49552484 -0.78130071 2.49552484 0 0 Z " fill="#676D21" transform="translate(249,226)"/>
<path d="M0 0 C0.33 0.66 0.66 1.32 1 2 C1.66 2 2.32 2 3 2 C3 1.34 3 0.68 3 0 C4.98 0 6.96 0 9 0 C8.38125 0.061875 7.7625 0.12375 7.125 0.1875 C6.073125 0.5896875 6.073125 0.5896875 5 1 C4.31867549 2.66072849 3.65257873 4.327767 3 6 C1.125 7.375 1.125 7.375 -1 8 C-3.25 7.625 -3.25 7.625 -5 7 C-4.0409375 6.1028125 -4.0409375 6.1028125 -3.0625 5.1875 C-0.79689611 3.09189663 -0.79689611 3.09189663 0 0 Z " fill="#676D21" transform="translate(160,277)"/>
<path d="M0 0 C1.6065676 0.25620684 3.2102483 0.53055871 4.8125 0.8125 C6.15248047 1.03873047 6.15248047 1.03873047 7.51953125 1.26953125 C10.18321256 2.05395393 11.25690322 2.88627799 13 5 C10.44855176 5.93045933 9.25993522 6.08564091 6.640625 5.22265625 C5.85171875 4.83980469 5.0628125 4.45695313 4.25 4.0625 C3.45078125 3.68222656 2.6515625 3.30195313 1.828125 2.91015625 C1.22484375 2.60980469 0.6215625 2.30945313 0 2 C0 1.34 0 0.68 0 0 Z " fill="#676D21" transform="translate(98,190)"/>
<path d="M0 0 C-1 3 -1 3 -2.84765625 4.16796875 C-3.57855469 4.50441406 -4.30945313 4.84085938 -5.0625 5.1875 C-5.79597656 5.53167969 -6.52945313 5.87585938 -7.28515625 6.23046875 C-8.13400391 6.61138672 -8.13400391 6.61138672 -9 7 C-9 6.34 -9 5.68 -9 5 C-9.66 4.67 -10.32 4.34 -11 4 C-9.73760288 3.13341385 -8.46472499 2.28207941 -7.1875 1.4375 C-6.47980469 0.96183594 -5.77210937 0.48617188 -5.04296875 -0.00390625 C-3 -1 -3 -1 0 0 Z " fill="#676D21" transform="translate(100,20)"/>
<path d="M0 0 C0.33 0 0.66 0 1 0 C1.05841253 3.54159657 1.09373452 7.08306793 1.125 10.625 C1.14175781 11.62402344 1.15851563 12.62304688 1.17578125 13.65234375 C1.21014246 18.84088709 1.10254937 23.14923649 -1 28 C-1.33 28 -1.66 28 -2 28 C-2 25.36 -2 22.72 -2 20 C-1.34 20 -0.68 20 0 20 C0 13.4 0 6.8 0 0 Z " fill="#676D21" transform="translate(206,173)"/>
<path d="M0 0 C3.65938172 1.43164111 7.23988068 2.98934296 10.8125 4.625 C12.27623047 5.29402344 12.27623047 5.29402344 13.76953125 5.9765625 C14.50558594 6.31429687 15.24164063 6.65203125 16 7 C16 7.33 16 7.66 16 8 C13.125 8.125 13.125 8.125 10 8 C9.34 7.34 8.68 6.68 8 6 C5.68234271 5.28072705 3.34904126 4.6090107 1 4 C0.67 2.68 0.34 1.36 0 0 Z " fill="#676D21" transform="translate(103,143)"/>
<path d="M0 0 C4.41031645 0.50888267 6.89327599 3.03449072 10 6 C10 6.99 10 7.98 10 9 C9.401875 8.690625 8.80375 8.38125 8.1875 8.0625 C5.91043228 6.89790296 5.91043228 6.89790296 3 6 C3 5.01 3 4.02 3 3 C2.34 3 1.68 3 1 3 C0.67 2.01 0.34 1.02 0 0 Z " fill="#676D21" transform="translate(92,135)"/>
<path d="M0 0 C2.97 0.495 2.97 0.495 6 1 C6.36552803 2.41377782 6.71695495 3.83120576 7.0625 5.25 C7.25972656 6.03890625 7.45695313 6.8278125 7.66015625 7.640625 C8.01497267 10.10394822 7.76877544 11.65604132 7 14 C6.34 14 5.68 14 5 14 C5.33 12.02 5.66 10.04 6 8 C5.34 7.67 4.68 7.34 4 7 C4 5.68 4 4.36 4 3 C2.68 2.34 1.36 1.68 0 1 C0 0.67 0 0.34 0 0 Z " fill="#676D21" transform="translate(192,58)"/>
<path d="M0 0 C0.99 0 1.98 0 3 0 C1.63491499 3.11728368 0.13080302 5.08663738 -2.4375 7.3125 C-3.03433594 7.84488281 -3.63117188 8.37726563 -4.24609375 8.92578125 C-4.82488281 9.28027344 -5.40367187 9.63476562 -6 10 C-6.99 9.67 -7.98 9.34 -9 9 C-7 6 -7 6 -3.9375 5.0625 C-2.968125 4.711875 -1.99875 4.36125 -1 4 C-0.03122943 1.96756452 -0.03122943 1.96756452 0 0 Z " fill="#676D21" transform="translate(261,220)"/>
<path d="M0 0 C1.45823212 -0.0270043 2.91660675 -0.04639787 4.375 -0.0625 C5.18710938 -0.07410156 5.99921875 -0.08570313 6.8359375 -0.09765625 C9 0 9 0 11 1 C11.33 1.99 11.66 2.98 12 4 C12.99 4.66 13.98 5.32 15 6 C13.35 6 11.7 6 10 6 C10 5.34 10 4.68 10 4 C9.278125 3.87625 8.55625 3.7525 7.8125 3.625 C5.04278106 3.0095069 2.6029646 2.11555626 0 1 C0 0.67 0 0.34 0 0 Z " fill="#676D21" transform="translate(136,160)"/>
<path d="M0 0 C1.65 0.33 3.3 0.66 5 1 C1.76478258 3.48862878 -1.59260295 5.75421558 -5 8 C-5.66 7.67 -6.32 7.34 -7 7 C-6 4 -6 4 -3 2 C-2.01 2 -1.02 2 0 2 C0 1.34 0 0.68 0 0 Z " fill="#676D21" transform="translate(108,57)"/>
<path d="M0 0 C0.33 0 0.66 0 1 0 C1.33 8.25 1.66 16.5 2 25 C1.01 24.34 0.02 23.68 -1 23 C-1.328125 19.8046875 -1.328125 19.8046875 -1.25 15.875 C-1.23904297 15.20009521 -1.22808594 14.52519043 -1.21679688 13.82983398 C-1.11328979 9.15457668 -0.75287184 4.61134001 0 0 Z " fill="#676D21" transform="translate(83,94)"/>
<path d="M0 0 C5.83881313 -0.15365298 9.01664188 2.1391833 14 5 C14 5.66 14 6.32 14 7 C8 5 8 5 2 3 C2 2.34 2 1.68 2 1 C1.34 0.67 0.68 0.34 0 0 Z " fill="#676D21" transform="translate(182,56)"/>
<path d="M0 0 C0 0.66 0 1.32 0 2 C-3.30994713 3.65497356 -6.99123 3.10084335 -10.625 3.0625 C-11.42679688 3.05798828 -12.22859375 3.05347656 -13.0546875 3.04882812 C-15.03649006 3.03703168 -17.01825433 3.01909605 -19 3 C-19 2.67 -19 2.34 -19 2 C-16.58374679 1.66340751 -14.16707192 1.33061612 -11.75 1 C-10.72712891 0.85691406 -10.72712891 0.85691406 -9.68359375 0.7109375 C-6.40628012 0.2654774 -3.31615847 0 0 0 Z " fill="#676D21" transform="translate(168,230)"/>
<path d="M0 0 C3 1 3 1 4.16796875 3.28515625 C4.50441406 4.20167969 4.84085938 5.11820313 5.1875 6.0625 C5.53167969 6.98160156 5.87585938 7.90070313 6.23046875 8.84765625 C6.48441406 9.55792969 6.73835937 10.26820313 7 11 C6.34 11.66 5.68 12.32 5 13 C4.15930585 11.39967863 3.32768495 9.79458829 2.5 8.1875 C1.80390625 6.84751953 1.80390625 6.84751953 1.09375 5.48046875 C0 3 0 3 0 0 Z " fill="#676D21" transform="translate(197,148)"/>
<path d="M0 0 C2.3129482 2.3129482 2.49580975 3.47904875 3.125 6.625 C3.29257812 7.44226563 3.46015625 8.25953125 3.6328125 9.1015625 C3.81457031 10.04128906 3.81457031 10.04128906 4 11 C3.01 10.67 2.02 10.34 1 10 C1 9.01 1 8.02 1 7 C0.34 7 -0.32 7 -1 7 C-0.67 4.69 -0.34 2.38 0 0 Z " fill="#676D21" transform="translate(267,76)"/>
<path d="M0 0 C2.97 0.495 2.97 0.495 6 1 C6.33 1.99 6.66 2.98 7 4 C5.68 4 4.36 4 3 4 C3 4.66 3 5.32 3 6 C0.69 6 -1.62 6 -4 6 C-2.68 5.34 -1.36 4.68 0 4 C0 3.01 0 2.02 0 1 C0 0.67 0 0.34 0 0 Z " fill="#676D21" transform="translate(167,48)"/>
<path d="M0 0 C0.99 0 1.98 0 3 0 C2 3 2 3 0.29296875 4.203125 C-0.40183594 4.54859375 -1.09664062 4.8940625 -1.8125 5.25 C-2.49957031 5.60578125 -3.18664062 5.9615625 -3.89453125 6.328125 C-6.35077442 7.11193544 -7.60042386 6.84119973 -10 6 C-9.01 5.67 -8.02 5.34 -7 5 C-6.67 4.34 -6.34 3.68 -6 3 C-2.9375 2.375 -2.9375 2.375 0 2 C0 1.34 0 0.68 0 0 Z " fill="#676D21" transform="translate(171,275)"/>
<path d="M0 0 C3.83901868 0.54843124 5.36163505 2.2765265 8 5 C8.99 5.33 9.98 5.66 11 6 C11 6.66 11 7.32 11 8 C6.80639551 7.32902328 3.59665648 5.1441606 0 3 C0 2.01 0 1.02 0 0 Z " fill="#676D21" transform="translate(87,260)"/>
<path d="M0 0 C0 0.66 0 1.32 0 2 C-0.969375 2.45375 -1.93875 2.9075 -2.9375 3.375 C-6.07079582 4.65786221 -6.07079582 4.65786221 -7 7 C-8.32 7 -9.64 7 -11 7 C-10 4 -10 4 -8.22265625 2.83203125 C-7.50980469 2.49558594 -6.79695313 2.15914063 -6.0625 1.8125 C-5.35222656 1.46832031 -4.64195313 1.12414062 -3.91015625 0.76953125 C-2 0 -2 0 0 0 Z " fill="#676D21" transform="translate(126,4)"/>
<path d="M0 0 C0.5775 0.2475 1.155 0.495 1.75 0.75 C0.945625 1.36875 0.14125 1.9875 -0.6875 2.625 C-3.28874519 4.49164041 -3.28874519 4.49164041 -4.25 6.75 C-6.3125 7.375 -6.3125 7.375 -8.25 7.75 C-6.64613593 4.0076505 -4.56199942 -0.50688882 0 0 Z " fill="#676D21" transform="translate(29.25,60.25)"/>
<path d="M0 0 C0.66 0.66 1.32 1.32 2 2 C1.01 2 0.02 2 -1 2 C-1.28875 2.639375 -1.5775 3.27875 -1.875 3.9375 C-3 6 -3 6 -5 7 C-7.125 6.5625 -7.125 6.5625 -9 6 C-9 5.34 -9 4.68 -9 4 C-7.35 4 -5.7 4 -4 4 C-4 3.34 -4 2.68 -4 2 C-2.68 1.34 -1.36 0.68 0 0 Z " fill="#676D21" transform="translate(70,37)"/>
<path d="M0 0 C0.99 0 1.98 0 3 0 C3.33 1.98 3.66 3.96 4 6 C4.99 6 5.98 6 7 6 C6.67 6.99 6.34 7.98 6 9 C1.3125 5.484375 1.3125 5.484375 0 4 C0 2.68 0 1.36 0 0 Z " fill="#676D21" transform="translate(125,106)"/>
<path d="M0 0 C3.59391114 1.33488128 6.75490696 2.96022723 10 5 C9.34 5.66 8.68 6.32 8 7 C1.125 3.375 1.125 3.375 0 0 Z " fill="#676D21" transform="translate(174,12)"/>
<path d="M0 0 C1.46224799 0.42423244 2.91973412 0.86490245 4.375 1.3125 C5.18710938 1.55613281 5.99921875 1.79976562 6.8359375 2.05078125 C9 3 9 3 11 6 C9.3501725 5.57781184 7.70516335 5.13675575 6.0625 4.6875 C5.14597656 4.44386719 4.22945312 4.20023438 3.28515625 3.94921875 C2.53105469 3.63597656 1.77695313 3.32273437 1 3 C0.67 2.01 0.34 1.02 0 0 Z " fill="#676D21" transform="translate(165,10)"/>
<path d="M0 0 C1.98 0.66 3.96 1.32 6 2 C6 2.66 6 3.32 6 4 C7.65 4 9.3 4 11 4 C11 4.66 11 5.32 11 6 C8.69 5.67 6.38 5.34 4 5 C3.67 4.01 3.34 3.02 3 2 C2.01 1.67 1.02 1.34 0 1 C0 0.67 0 0.34 0 0 Z " fill="#676D21" transform="translate(122,280)"/>
<path d="M0 0 C0.99 0 1.98 0 3 0 C3.66 2.97 4.32 5.94 5 9 C2.09197539 6.78071806 0.04687238 5.07030857 -2 2 C-1.34 2 -0.68 2 0 2 C0 1.34 0 0.68 0 0 Z " fill="#676D21" transform="translate(17,209)"/>
<path d="M0 0 C0 0.66 0 1.32 0 2 C0.66 2.66 1.32 3.32 2 4 C-0.64 3.67 -3.28 3.34 -6 3 C-6 2.01 -6 1.02 -6 0 C-2.25 -1.125 -2.25 -1.125 0 0 Z " fill="#676D21" transform="translate(120,193)"/>
<path d="M0 0 C0.66 0 1.32 0 2 0 C2 0.66 2 1.32 2 2 C3.175625 2.4640625 3.175625 2.4640625 4.375 2.9375 C7 4 7 4 9 5 C9 5.66 9 6.32 9 7 C5.59687262 5.94124926 2.98646769 4.99097846 0 3 C0 2.01 0 1.02 0 0 Z " fill="#676D21" transform="translate(116,277)"/>
<path d="M0 0 C1.65 0.33 3.3 0.66 5 1 C4.01 1.66 3.02 2.32 2 3 C0.78715124 6.05429073 0.78715124 6.05429073 0 9 C-0.33 9 -0.66 9 -1 9 C-1.125 2.25 -1.125 2.25 0 0 Z " fill="#676D21" transform="translate(89,188)"/>
<path d="M0 0 C1.093125 0.0825 2.18625 0.165 3.3125 0.25 C-0.99519231 4.18846154 -0.99519231 4.18846154 -4.5 4.5 C-5.221875 4.4175 -5.94375 4.335 -6.6875 4.25 C-4.79150483 0.68106792 -4.16790733 0.28256999 0 0 Z " fill="#676D21" transform="translate(135.6875,2.75)"/>
<path d="M0 0 C1.98 0 3.96 0 6 0 C6 0.99 6 1.98 6 3 C5.67 2.34 5.34 1.68 5 1 C4.236875 1.515625 3.47375 2.03125 2.6875 2.5625 C1.800625 3.036875 0.91375 3.51125 0 4 C-0.99 3.67 -1.98 3.34 -3 3 C-2.34 3 -1.68 3 -1 3 C-0.67 2.01 -0.34 1.02 0 0 Z " fill="#676D21" transform="translate(217,246)"/>
<path d="M0 0 C-3.96697886 1.80317221 -7.6822542 2.49202991 -12 3 C-11.67 2.01 -11.34 1.02 -11 0 C-3.57142857 -1.28571429 -3.57142857 -1.28571429 0 0 Z " fill="#676D21" transform="translate(180,229)"/>
<path d="M0 0 C0.99 0 1.98 0 3 0 C3.33 1.32 3.66 2.64 4 4 C2.02 4 0.04 4 -2 4 C-1.34 2.68 -0.68 1.36 0 0 Z " fill="#676D21" transform="translate(160,123)"/>
<path d="M0 0 C0.66 0 1.32 0 2 0 C1.67 1.98 1.34 3.96 1 6 C0.34 6 -0.32 6 -1 6 C-1 6.66 -1 7.32 -1 8 C-1.66 8 -2.32 8 -3 8 C-1.125 2.25 -1.125 2.25 0 0 Z " fill="#676D21" transform="translate(20,71)"/>
<path d="M0 0 C1 2 1 2 1 6 C1.66 6.66 2.32 7.32 3 8 C1.35 7.67 -0.3 7.34 -2 7 C-2.125 4.625 -2.125 4.625 -2 2 C-1.34 1.34 -0.68 0.68 0 0 Z " fill="#676D21" transform="translate(81,214)"/>
<path d="M0 0 C0.66 0.66 1.32 1.32 2 2 C4.57061311 2.64767793 4.57061311 2.64767793 7 3 C6.34 4.32 5.68 5.64 5 7 C3.0625 6.3125 3.0625 6.3125 1 5 C0.25 2.375 0.25 2.375 0 0 Z " fill="#676D21" transform="translate(88,131)"/>
<path d="M0 0 C1.32 0.33 2.64 0.66 4 1 C4 1.66 4 2.32 4 3 C5.32 3.66 6.64 4.32 8 5 C4.79604584 5 2.90600261 4.25664978 0 3 C0 2.01 0 1.02 0 0 Z " fill="#676D21" transform="translate(84,222)"/>
<path d="M0 0 C0.99 0.66 1.98 1.32 3 2 C1.35 2.66 -0.3 3.32 -2 4 C-2 4.66 -2 5.32 -2 6 C-2.66 6 -3.32 6 -4 6 C-3.6875 4.125 -3.6875 4.125 -3 2 C-2.01 1.34 -1.02 0.68 0 0 Z " fill="#676D21" transform="translate(193,218)"/>
<path d="M0 0 C1.2065625 0.0309375 1.2065625 0.0309375 2.4375 0.0625 C2.4375 1.0525 2.4375 2.0425 2.4375 3.0625 C3.0975 3.3925 3.7575 3.7225 4.4375 4.0625 C1.06287285 3.51526317 -0.64485 3.0076 -3.5625 1.0625 C-2.5625 0.0625 -2.5625 0.0625 0 0 Z " fill="#676D21" transform="translate(118.5625,150.9375)"/>
<path d="M0 0 C1.258125 0.12375 2.51625 0.2475 3.8125 0.375 C4.87404297 0.47941406 4.87404297 0.47941406 5.95703125 0.5859375 C8 1 8 1 11 3 C8.83032311 3.95465783 7.43671207 4.14401212 5.17578125 3.3984375 C3.4315257 2.64129615 1.71372869 1.82390802 0 1 C0 0.67 0 0.34 0 0 Z " fill="#676D21" transform="translate(163,87)"/>
<path d="M0 0 C0.66 0 1.32 0 2 0 C1.45773019 3.79588866 -0.20127563 5.47211993 -3 8 C-2.45276317 4.62537285 -1.9451 2.91765 0 0 Z " fill="#676D21" transform="translate(90,70)"/>
<path d="M0 0 C5.875 3.625 5.875 3.625 7 7 C6.01 7 5.02 7 4 7 C4 6.01 4 5.02 4 4 C2.68 3.34 1.36 2.68 0 2 C0 1.34 0 0.68 0 0 Z " fill="#676D21" transform="translate(260,65)"/>
<path d="M0 0 C0.99 0.33 1.98 0.66 3 1 C2.34 1 1.68 1 1 1 C1 1.66 1 2.32 1 3 C1.99 3.33 2.98 3.66 4 4 C3.67 4.66 3.34 5.32 3 6 C1.68 6 0.36 6 -1 6 C-0.67 4.02 -0.34 2.04 0 0 Z " fill="#676D21" transform="translate(224,41)"/>
</svg>
